<svg width="40" height="40" viewBox="0 0 40 40" fill="none" xmlns="http://www.w3.org/2000/svg">
  <defs>
    <filter id="glow">
      <feGaussianBlur stdDeviation="3" result="coloredBlur"/>
      <feMerge> 
        <feMergeNode in="coloredBlur"/>
        <feMergeNode in="SourceGraphic"/>
      </feMerge>
    </filter>
  </defs>
  
  <!-- Cross/X shape -->
  <path d="M20 8C22.2091 8 24 9.79086 24 12V16H28C30.2091 16 32 17.7909 32 20C32 22.2091 30.2091 24 28 24H24V28C24 30.2091 22.2091 32 20 32C17.7909 32 16 30.2091 16 28V24H12C9.79086 24 8 22.2091 8 20C8 17.7909 9.79086 16 12 16H16V12C16 9.79086 17.7909 8 20 8Z" 
        fill="#B3D9FF" 
        filter="url(#glow)"/>
  
  <!-- Four dots -->
  <circle cx="20" cy="14" r="1.5" fill="#1E40AF"/>
  <circle cx="20" cy="26" r="1.5" fill="#1E40AF"/>
  <circle cx="14" cy="20" r="1.5" fill="#1E40AF"/>
  <circle cx="26" cy="20" r="1.5" fill="#1E40AF"/>
</svg> 